{
  "accessors": [
    {
      "bufferView": 2,
      "componentType": 5126,
      "count": 2977,
      "max": [
        0.0722050741314888,
        0.012199563905596733,
        0.0722050815820694
      ],
      "min": [
        -0.0722050741314888,
        0.0,
        -0.0722050815820694
      ],
      "type": "VEC3"
    },
    {
      "bufferView": 2,
      "byteOffset": 35724,
      "componentType": 5126,
      "count": 2977,
      "max": [
        0.9942658543586731,
        1.0,
        0.9942658543586731
      ],
      "min": [
        -0.9942658543586731,
        -1.0,
        -0.9942658543586731
      ],
      "type": "VEC3"
    },
    {
      "bufferView": 1,
      "componentType": 5126,
      "count": 2977,
      "max": [
        0.9983600974082947,
        0.5122567415237427
      ],
      "min": [
        0.0017295588040724397,
        0.001673565013334155
      ],
      "type": "VEC2"
    },
    {
      "bufferView": 0,
      "componentType": 5125,
      "count": 14592,
      "type": "SCALAR"
    },
    {
      "bufferView": 2,
      "byteOffset": 71448,
      "componentType": 5126,
      "count": 6652,
      "max": [
        0.07639309763908386,
        0.0914859026670456,
        0.04493749514222145
      ],
      "min": [
        -0.044938258826732635,
        0.0,
        -0.04493749141693115
      ],
      "type": "VEC3"
    },
    {
      "bufferView": 2,
      "byteOffset": 151272,
      "componentType": 5126,
      "count": 6652,
      "max": [
        1.0,
        1.0,
        1.0
      ],
      "min": [
        -1.0,
        -1.0,
        -1.0
      ],
      "type": "VEC3"
    },
    {
      "bufferView": 1,
      "byteOffset": 23816,
      "componentType": 5126,
      "count": 6652,
      "max": [
        0.9970775842666626,
        0.9876108169555664
      ],
      "min": [
        0.00019145449914503843,
        0.00019148807041347027
      ],
      "type": "VEC2"
    },
    {
      "bufferView": 0,
      "byteOffset": 58368,
      "componentType": 5125,
      "count": 32256,
      "type": "SCALAR"
    },
    {
      "bufferView": 2,
      "byteOffset": 231096,
      "componentType": 5126,
      "count": 2910,
      "max": [
        0.0974624752998352,
        0.01310920249670744,
        0.015198863111436367
      ],
      "min": [
        -0.050301600247621536,
        1.6275331290671602e-05,
        -0.015198863111436367
      ],
      "type": "VEC3"
    },
    {
      "bufferView": 2,
      "byteOffset": 266016,
      "componentType": 5126,
      "count": 2910,
      "max": [
        0.971811830997467,
        0.9999845027923584,
        0.9988852143287659
      ],
      "min": [
        -0.9719007015228271,
        -0.9999929666519165,
        -0.9988847374916077
      ],
      "type": "VEC3"
    },
    {
      "bufferView": 1,
      "byteOffset": 77032,
      "componentType": 5126,
      "count": 2910,
      "max": [
        0.41420602798461914,
        0.9999092221260071
      ],
      "min": [
        9.08655856619589e-05,
        9.086559293791652e-05
      ],
      "type": "VEC2"
    },
    {
      "bufferView": 0,
      "byteOffset": 187392,
      "componentType": 5125,
      "count": 12864,
      "type": "SCALAR"
    }
  ],
  "asset": {
    "extras": {
      "author": "kananav (https://sketchfab.com/kananav)",
      "license": "CC-BY-4.0 (http://creativecommons.org/licenses/by/4.0/)",
      "source": "https://sketchfab.com/3d-models/coffee-cup-for-blender-a9e6ba591b6c4934b1531ccbc09e634a",
      "title": "Coffee Cup for Blender"
    },
    "generator": "Sketchfab-13.61.0",
    "version": "2.0"
  },
  "bufferViews": [
    {
      "buffer": 0,
      "byteLength": 238848,
      "name": "floatBufferViews",
      "target": 34963
    },
    {
      "buffer": 0,
      "byteLength": 100312,
      "byteOffset": 238848,
      "byteStride": 8,
      "name": "floatBufferViews",
      "target": 34962
    },
    {
      "buffer": 0,
      "byteLength": 300936,
      "byteOffset": 339160,
      "byteStride": 12,
      "name": "floatBufferViews",
      "target": 34962
    }
  ],
  "buffers": [
    {
      "byteLength": 640096,
      "uri": "coffee.bin"
    }
  ],
  "images": [
    {
      "uri": "textures/M_Coffee_Plate.002_metallicRoughness.png"
    }
  ],
  "materials": [
    {
      "doubleSided": true,
      "name": "M_Coffee_Plate.002",
      "pbrMetallicRoughness": {
        "baseColorFactor": [
          0.5271151257058131,
          0.09305896284668749,
          0.12477181756095053,
          1.0
        ],
        "metallicFactor": 0.0,
        "metallicRoughnessTexture": {
          "index": 0
        },
        "roughnessFactor": 0.285
      }
    },
    {
      "doubleSided": true,
      "name": "M_Coffee_Cup.002",
      "pbrMetallicRoughness": {
        "baseColorFactor": [
          0.5271151257058131,
          0.09305896284668749,
          0.12477181756095053,
          1.0
        ],
        "metallicFactor": 0.0,
        "metallicRoughnessTexture": {
          "index": 0
        },
        "roughnessFactor": 0.28495324938133143
      }
    },
    {
      "doubleSided": true,
      "name": "M_Coffee_Spoon.002",
      "pbrMetallicRoughness": {
        "baseColorFactor": [
          0.26497112339977263,
          0.26497112339977263,
          0.26497112339977263,
          1.0
        ],
        "metallicFactor": 0.95,
        "metallicRoughnessTexture": {
          "index": 0
        },
        "roughnessFactor": 0.1
      }
    }
  ],
  "meshes": [
    {
      "name": "Object_0",
      "primitives": [
        {
          "attributes": {
            "NORMAL": 1,
            "POSITION": 0,
            "TEXCOORD_0": 2
          },
          "indices": 3,
          "material": 0,
          "mode": 4
        }
      ]
    },
    {
      "name": "Object_1",
      "primitives": [
        {
          "attributes": {
            "NORMAL": 5,
            "POSITION": 4,
            "TEXCOORD_0": 6
          },
          "indices": 7,
          "material": 1,
          "mode": 4
        }
      ]
    },
    {
      "name": "Object_2",
      "primitives": [
        {
          "attributes": {
            "NORMAL": 9,
            "POSITION": 8,
            "TEXCOORD_0": 10
          },
          "indices": 11,
          "material": 2,
          "mode": 4
        }
      ]
    }
  ],
  "nodes": [
    {
      "children": [
        1
      ],
      "matrix": [
        1.0,
        0.0,
        0.0,
        0.0,
        0.0,
        2.220446049250313e-16,
        -1.0,
        0.0,
        0.0,
        1.0,
        2.220446049250313e-16,
        0.0,
        0.0,
        0.0,
        0.0,
        1.0
      ],
      "name": "Sketchfab_model"
    },
    {
      "children": [
        2
      ],
      "name": "root"
    },
    {
      "children": [
        3,
        5,
        7
      ],
      "matrix": [
        1.0,
        0.0,
        0.0,
        0.0,
        0.0,
        2.220446049250313e-16,
        1.0,
        0.0,
        0.0,
        -1.0,
        2.220446049250313e-16,
        0.0,
        0.0,
        0.0,
        0.0,
        1.0
      ],
      "name": "GLTF_SceneRootNode"
    },
    {
      "children": [
        4
      ],
      "name": "Coffee Plate_0"
    },
    {
      "mesh": 0,
      "name": "Object_4"
    },
    {
      "children": [
        6
      ],
      "matrix": [
        1.0,
        0.0,
        0.0,
        0.0,
        0.0,
        1.0,
        0.0,
        0.0,
        0.0,
        0.0,
        1.0,
        0.0,
        0.0,
        0.003731844713911414,
        0.0,
        1.0
      ],
      "name": "Coffee Cup_1"
    },
    {
      "mesh": 1,
      "name": "Object_6"
    },
    {
      "children": [
        8
      ],
      "matrix": [
        0.29459329433796966,
        -0.849363465842057,
        0.43794576584763456,
        0.0,
        0.528015530285074,
        0.52664799383523,
        0.6662142976303493,
        0.0,
        -0.7965013438211354,
        0.03497990111616034,
        0.6036240682817652,
        0.0,
        -0.022160300984978676,
        0.0887673944234848,
        -0.02667650766670704,
        1.0
      ],
      "name": "Coffee Spoon_2"
    },
    {
      "mesh": 2,
      "name": "Object_8"
    }
  ],
  "samplers": [
    {
      "magFilter": 9729,
      "minFilter": 9987,
      "wrapS": 10497,
      "wrapT": 10497
    }
  ],
  "scene": 0,
  "scenes": [
    {
      "name": "Sketchfab_Scene",
      "nodes": [
        0
      ]
    }
  ],
  "textures": [
    {
      "sampler": 0,
      "source": 0
    }
  ]
}
